<?xml version="1.0" encoding="utf-8"?>
<!-- Generator: Adobe Illustrator 22.1.0, SVG Export Plug-In . SVG Version: 6.00 Build 0)  -->
<svg version="1.1" id="Warstwa_1" xmlns="http://www.w3.org/2000/svg" xmlns:xlink="http://www.w3.org/1999/xlink" x="0px" y="0px"
	 viewBox="0 0 206.3 206.3" style="enable-background:new 0 0 206.3 206.3;" xml:space="preserve">
<style type="text/css">
	.st0{fill:#933EC5;}
</style>
<g>
	<path class="st0" d="M82.2,131.5c0.5,3.7,1.1,7.4,1.6,12.1c0.5,4,0.5,7.2,0.3,10.2c-2.4,8.6-0.8,15.1,0.6,21.1
		c1.7,5.8,3.6,11.4,4.5,16.5c0.1,1.3,0.2,2.7,0.1,3.7c-0.5,1.3,0,2.6,0.4,3.8c0.3,0.5-0.2,1.2-1.1,2.1c-0.8,1.4-2.6,2.3-4,3.3
		c-0.2,0.6-0.2,1.2,0.4,1.7l0.5,0.4l11.8,0.2c0.6-0.4,0.9-1,0.6-2.5l-0.4-1.9c0.9-1.4,1-3,0.9-4.6c-0.3-2.1-0.7-4-1.7-5.1
		c-0.9-1.3-0.8-6-0.7-9.2c1.1-6.9,2-13.9,1.1-22.3c-0.3-2-0.4-4,0-6.3c2.1-4.8,1.8-8.7,2.1-12.9l0.5-10.3l0,0.4
		c0.9-5.5,0.9-11.3,1.1-17.8c0-1.4,0.4-5.7-0.9-5.7c0.7-0.3,1.6-1.1,2.4-1.8c0.5,0.1,1.3,0.1,2,0.1c-0.7,2.7-1.9,5.2-1.1,8.3
		c-0.2,5.7,1.2,11.2,1.5,16.9l0.1-0.3l1.5,22v8.1l0.2,10.9l0.8,15.3l-1.2,4.5l-1.5,4.5l0.9,3.8l-0.6,2.5l0.6,2.8l12.2-0.2
		c0.9-1.3,0.6-2.2-0.2-2.8c-1-0.7-2-1.2-3-2.3c-1.4-1.7-1-2-1.2-2.6c0-0.3,0.6-0.8,0.7-1.3c0.1-0.6,0.4-0.6-0.2-3.5
		c-0.2-0.8-0.1-1.7,0.1-2.6c1.1-4.3,2.2-8.5,3.9-12.9c2-7,3.8-14.1,2.2-21.3c-0.2-2.9-0.6-5.7-0.2-9.1c0.2-3,0.5-6,1.1-9.4
		c1-5.1,2-10.1,3.6-15.2c1.4-4.6,2.9-9,3.2-14.9l0,0.1c0.5-4.2-0.8-16-1.5-20.1c-1.2-4-3.3-7-5.8-10.3c-1.3-2-1.9-4.2-1.5-6.8
		c0.8-4,1.7-7.5,1.7-12l0,0.9c0.2,2.6,0.4,4.1,0.6,5.2c0.4,1.6,0.6,3.4,0.6,5.2c0.1,5.5,1.1,8.2,2,10.9c1.8,4.3,2.3,7.3,6.9,14.6
		c1.2,2.7,0.7,3.2,0.5,3.6c-0.2,0.4-0.4,1.1-0.6,1.7c-0.1,0.6-0.4,1.7-0.3,4.3c0,1.2-0.2,1.1-0.5,2c-0.1,0.9-0.3,1.6-0.3,2.4
		c0,1.3,1.9,2,2.1,0.6c0.2-1,0.6-1.9,1-2.8c0.2,0.5,0.4,0.7,0.6,0.7c-0.2,0.8-0.4,1.6-0.3,3c-0.4,1.6-1,3.2-1.8,4.7
		c-0.4,1.5,1.6,2.3,2.2,0.8c0.3-1,0.4-2,1.5-3c0.8-1,1.5-1.9,2-3.7c0.1-0.5,0-0.7,0.7-1.8c0.3-0.3,0.5-1-0.1-4.3
		c-0.1-1.2-0.3-2.5-0.6-4.2c-0.8-4.6-1.1-9.3-1.3-14c-0.3-5-0.8-10.1-3-15.6c-0.8-2.4-1.2-6.1-0.9-12c0.2-4.7,1-9.3,0.2-14.1
		l-0.1,0.1c-0.5-1.1-2.4-6.5-11.9-8.4c-0.8-0.5-1.6-0.8-2.5-1.3l-0.1,0c0.5-1.6-1.7-3.3-1.4-6.2c1.1-1.8,0.7-4.7,0.1-7.4
		c0.6-3.1,2-8.1-1.7-12c0.2-2.5-2.1-5.9-5.6-5.7c-3-2.5-6.1-3.9-9.6-1.4c-3.1,0.6-5.3,2.7-5.9,4.6c-3.1,1.3-3,4.8-2.7,7.2l0.7,2.2
		c-1.7-0.5-1.8,0.7-1,2.7c0.6,1.3,0.4,3.6,2.6,3.5c0.2,1.3,0.7,2.9,1.7,4.2c0.4,2.6-0.2,4-0.1,5.8l0,0c-3.1,1.5-8.1,3.5-12.9,4.6
		c-0.3,0.1-0.4,0.2-0.7,0.3c-2.8,0.4-5.2,1.9-6.4,3.7c-2.1,2.4-1.8,4.9-1.7,7.8c-0.4,3.3-0.4,5.8-0.3,7.9c0.1,2.1,0.3,4,0.3,6.2
		c0,0.5-0.1,1.8-0.1,2.3l0,0.1c-0.2,1.1-0.6,3.6-1,4.5c-2.2,6.1-2.7,13.2-2.7,20.4l-0.2,5.4c-0.6,1.3-0.5,1.6-0.1,3.6
		c0,0.5-0.5,3.1-1.3,7.3c-0.2,1.1,0,2,0.1,2.9c0.3,2.6,1.1,4.1,1.9,5.5c1.1,1.4,2.1,2.2,3.2,2.6c0.8,0.8,1.2,0.4,1.3-0.7
		c-0.3-1.3-0.6-2.6-1.6-3.9c-0.2-1-0.4-2.1-0.6-3.2c-0.2-0.9-0.2-1.8,0.1-2.5c0.5-0.2,1.1-0.6,1.5,0.2c-0.2,1.3-0.3,2.6,0.1,3.8
		c0.8,1.4,1.3,1.4,1.8,0c0.4-1.8,0.7-3.8,0.8-6.3c0.2-1.9,0-3.7-1-5c-1.4-1.3-0.9-2.8-0.3-4.4c2.2-5.5,4.3-11.1,6.3-16.6
		c1.5-4.1,2.1-13.2,2.1-18.6l-0.1-0.1c0.5,0.9,0.3,0.4,1.4,1.5c0.2,2.2,1.2,11.3,2.5,13.8c0,0.1,0,0.2,0,0.3
		C85,79,83.2,82.5,82,85.8c-3,6.9-3.3,9-4.2,11.9c-0.7,6.3-1.1,12.5,0.1,18c1.1,5.5,2.8,11.1,4.2,16.2L82.2,131.5z"/>
</g>
</svg>
